<svg version="1" xmlns="http://www.w3.org/2000/svg" width="500" height="500" viewBox="0 0 5000 5000"><path d="M767 4362c-16-17-17-120-17-1271 0-844 3-1259 10-1272 10-17 22-19 109-19 98 0 99 0 200-50 56-28 104-50 107-50s65-29 137-64c73-35 155-74 182-86 28-13 128-60 222-106 95-46 175-84 177-84 3 0 88-40 189-90 102-49 188-90 191-90 2 0 74-34 157-75 84-41 156-75 160-75 5 0 86-38 181-84s221-106 281-134c59-28 107-57 107-64 0-16 65-80 97-97 30-15 119-14 151 3 31 16 74 61 91 93 6 12 11 47 11 78 0 74-31 123-99 159-55 28-87 32-124 15-19-9-35-5-93 24-38 19-98 48-134 65-36 16-141 66-233 111-93 45-170 81-172 81s-83 38-180 85-179 85-182 85c-2 0-87 41-188 90-101 50-186 90-188 90-3 0-83 38-178 84l-174 85h1335c1025 1 1339 4 1348 13s12 307 12 1280c0 1243 0 1267-19 1278-13 7-573 10-1739 10-1653 0-1720-1-1735-18zm511-949l-3-408-47-3-48-3v821h100l-2-407zm420 0l-3-408h-90l-3 408-2 407h100l-2-407zm412-4v-410l-42 3-43 3-3 408-2 407h90v-411zm430 0v-410l-47 3-48 3-3 408-2 407h100v-411zm1001 397c71-22 99-39 162-99 38-37 68-78 90-124 29-62 32-76 32-163-1-136-25-197-120-298-83-90-226-135-353-112-79 14-172 63-224 117-20 21-54 72-74 113-36 71-38 80-38 171-1 53 4 107 10 120 7 13 19 43 29 66 20 49 108 143 157 168 108 57 228 71 329 41zm294-1248c3-13 4-104 3-203l-3-180-1327-3-1328-2v410h2650l5-22z" fill="#FFF"/><path d="M670 4971c0-4-20-16-45-25-25-10-64-28-87-42-24-13-52-28-63-33-12-5-27-16-34-25s-20-16-27-16-55-42-107-92c-92-91-160-180-191-249-8-19-23-47-32-64-27-48-34-64-34-80 0-9-7-18-15-21-13-5-15-217-15-1820 0-998 4-1814 8-1814 5 0 16-19 25-42 10-24 25-56 34-73 9-16 27-50 41-75 37-68 126-183 177-228 76-67 201-159 225-167 13-4 44-18 68-31 25-13 53-24 64-24 10 0 21-7 24-15 5-13 217-15 1824-15 1531 0 1819 2 1823 14 3 7 18 17 34 20 15 4 45 18 65 32 21 13 42 24 47 24 4 0 43 23 86 51 83 54 217 182 262 251 16 23 36 53 45 67 21 33 73 139 82 169 4 12 12 22 17 22s9 707 9 1835c0 1024-4 1835-9 1835-4 0-16 21-26 48-10 26-35 74-55 107s-39 67-42 75c-19 50-252 279-284 280-5 0-20 9-34 20-32 25-145 80-165 80-9 0-18 7-21 15-5 13-219 15-1840 15-1024 0-1834-4-1834-9zm3568-1883l2-1268H2885c-1208 0-1355-2-1355-15 0-9 10-19 23-24s99-46 191-90c93-45 170-81 173-81 2 0 87-40 188-90 101-49 186-90 188-90 3 0 85-38 182-85s178-85 180-85 79-36 172-81c92-45 197-95 233-111 36-17 96-46 134-65 58-29 74-33 93-24 37 17 70 13 120-13 61-33 83-71 83-144 0-102-59-162-158-162-74 0-126 31-156 93-7 13-46 39-96 64-160 80-481 233-489 233-4 0-76 34-160 75-83 41-155 75-157 75-3 0-89 41-191 90-101 50-186 90-189 90-2 0-82 38-177 84-94 46-194 93-222 106-27 12-109 51-182 86-72 35-134 64-137 64s-51 22-106 50c-98 48-105 49-198 52l-97 3-3 1255c-1 690 0 1261 3 1268 3 10 355 12 1732 10l1728-3 3-1267z"/><path d="M1172 3828c-17-17-17-819 0-836 7-7 31-12 53-12 78 0 75-16 75 436 0 298-3 403-12 412-16 16-100 16-116 0zM1592 3828c-9-9-12-115-12-413 0-377 1-403 18-418 21-19 73-22 103-7 18 10 19 26 19 418 0 304-3 411-12 420-16 16-100 16-116 0zM2012 3828c-9-9-12-108-12-420 0-400 0-408 20-418 12-6 40-10 63-8l42 3v850l-50 3c-30 2-55-2-63-10zM2432 3828c-9-9-12-115-12-413 0-377 1-403 18-418 22-20 92-23 110-5 17 17 17 819 0 836-16 16-100 16-116 0zM3290 3821c-25-10-60-27-79-36-51-27-155-138-176-187-9-24-22-54-29-67-6-13-11-67-10-120 0-91 2-100 38-171 139-279 479-343 681-128 105 111 129 168 129 308 1 82-3 103-25 151-47 100-93 151-198 221-72 49-246 63-331 29zM1172 2588c-17-17-17-409 0-426 9-9 320-12 1340-12 1302 0 1327 0 1338 19 13 25 13 371 0 405l-10 26H2512c-1020 0-1331-3-1340-12z"/></svg>