<svg version="1" xmlns="http://www.w3.org/2000/svg" width="500" height="500" viewBox="0 0 5000 5000"><path d="M2026 4116c-266-74-441-128-446-137-11-21-65-673-57-692 6-16 27-17 234-15l228 3 15 172c8 94 18 174 21 178 9 8 450 127 474 127 17 0 475-120 482-126 1-1 12-105 23-232 11-126 22-248 26-271l5-43h-759c-596 0-762-3-769-12-13-16-129-1319-120-1342 6-15 95-16 1117-16 978 0 1111 2 1116 15 8 20-25 403-36 433l-10 22H1890l1 33c0 17 8 113 17 212l17 180 802-4c749-4 803-3 809 13 6 17-99 1264-114 1340l-7 39-445 124c-245 67-458 122-475 122-16 0-227-56-469-123z" fill="#FFF"/><path d="M2410 4987c-147-33-1348-371-1360-383s-48-385-176-1817C786 1796 715 982 717 978c5-10 3561-10 3566-1 2 5-69 819-157 1810-127 1414-165 1806-176 1817-12 11-1184 340-1373 385-55 13-104 13-167-2zm549-888c240-66 437-122 440-124 4-5 120-1279 121-1329v-29l-800 7-800 7-9-23c-12-29-45-413-37-433 5-13 111-15 848-17l843-3 17-180c9-99 17-195 17-212l1-33H1400v28c0 15 25 303 55 641 30 337 55 624 55 637v24h764c421 0 767 4 770 8 7 12-44 565-52 573-8 7-478 132-497 132-7 0-119-28-250-63-197-53-238-67-245-85-4-11-13-91-20-177l-13-158h-427l1 43c0 23 12 177 27 342l27 300 435 122c239 67 448 122 464 122 16 1 225-53 465-120zM1047 684c-4-4-7-160-7-346V0h260v210h170V0h260l-2 343-3 342-114 3c-75 2-118-1-127-9-10-8-14-39-14-115V460h-169l-3 113-3 112-121 3c-66 1-123-1-127-4zM2007 684c-4-4-7-105-7-225V241l-97-3-98-3-3-117-3-118h652l-3 117-3 118-97 3-98 3-2 222-3 222-116 3c-63 1-118-1-122-4zM2527 684c-4-4-7-160-7-346V0h267l63 104 64 104 62-101 62-102 136-3 136-3-2 343-3 343h-250l-3-144-3-144-62 94c-34 51-68 95-74 97-7 2-41-40-75-94l-63-97-5 144-5 144-116 3c-63 1-118-1-122-4zM3397 683c-4-3-7-159-7-345V0h260v439l153 3 152 3v240l-276 3c-151 1-278-1-282-5z"/></svg>