<svg version="1" xmlns="http://www.w3.org/2000/svg" width="400" height="400" viewBox="0 0 4000 4000"><g fill="#FFF"><path d="M1830 3197c-100-27-110-32-110-56 0-10 16-80 35-157 19-76 35-146 35-154 0-18-116-54-126-39-2 5-23 79-44 166-22 86-44 161-48 165-10 10-235-45-239-59-2-6 14-84 36-174 24-96 37-167 31-173-5-5-95-31-200-57-106-27-196-52-201-55-17-10-9-41 37-145 61-137 59-135 131-120 32 8 73 18 91 23 26 8 38 6 58-7 14-9 27-22 28-28 6-21 45-175 65-257l40-160 40-160c49-195 63-250 82-321 20-72 20-78 4-108-18-36-70-63-158-82-94-20-93-18-62-144 15-61 33-117 41-125 12-13 23-12 87 3 86 21 201 50 280 71 44 11 59 12 62 3 3-7 22-81 44-165 21-85 44-159 49-164 8-8 34-5 89 10 43 12 93 24 110 27 18 4 36 11 39 16 6 10-8 74-47 214-26 97-25 123 7 135 14 6 42 13 62 16l37 6 39-161c21-89 43-164 48-167 11-7 93 9 178 34l55 17-2 45c-2 40-18 110-58 252-15 55-20 49 81 93 157 69 258 152 305 251 20 43 23 64 23 164 0 109-1 119-32 185-39 83-79 128-144 161-27 13-48 28-48 32 0 5 12 15 26 23 15 7 46 35 70 62 110 122 118 302 24 502-58 125-121 184-245 230-60 23-79 25-233 25-92 0-184-4-205-9-25-6-39-5-44 2-4 6-25 84-48 172-48 186-38 178-175 142zm413-668c66-27 103-69 116-129 19-86-18-156-117-218-74-48-365-143-383-125-9 9-32 88-67 228-11 44-27 106-35 138-8 31-11 60-6 63s66 18 136 34c164 37 281 39 356 9zm45-690c90-22 142-84 142-169 0-51-26-98-79-139-56-45-200-101-297-117l-40-6-22 81c-41 153-62 236-68 272s-6 36 43 49c62 17 187 37 236 39 21 0 59-4 85-10zM1975 50c-8-13 20-24 41-16 20 8 9 26-16 26-10 0-22-5-25-10z"/></g><path d="M1823 3957c-3-5-18-5-33-2s-31 2-34-3c-3-6-14-8-24-6-9 3-53-4-96-16-44-11-89-20-101-20s-50-11-85-25-70-25-77-25c-8 0-33-9-55-20-23-11-46-20-51-20-9 0-41-14-137-60-25-12-68-36-97-53-28-18-76-47-106-65-66-39-211-154-290-231-133-127-283-333-371-506-70-138-136-294-136-324 0-9-9-43-20-75-11-33-20-72-20-87s-5-31-11-34c-6-4-8-13-6-19 3-7-1-44-9-82-8-37-12-81-9-96 4-15 3-33 0-39-6-9-10-266-4-279 1-3 3-30 4-60 5-162 86-455 179-650 119-247 326-514 516-663 36-29 70-57 75-63 12-13 168-115 207-135 14-8 57-29 95-48 37-18 85-42 105-52 43-23 304-108 345-113 15-2 63-11 107-20 43-9 86-14 96-11s21 1 25-5c4-7 25-8 56-4 28 4 54 2 61-4 17-13 165-14 173-1 4 5 30 9 58 9 73-2 79-1 202 21 61 11 144 31 186 44 42 14 82 25 88 25 7 0 31 9 53 20 23 11 46 20 51 20 23 0 236 105 277 137 8 6 38 23 65 38 28 15 57 34 65 42 8 7 53 43 100 79 99 76 239 215 300 300 24 32 60 82 81 110 22 28 39 54 39 57 0 4 16 31 35 61 78 123 206 429 220 531 3 17 11 56 20 89 9 32 13 67 10 77-3 9-1 20 5 24s8 16 5 26c-4 11-2 25 3 32 13 16 12 418 0 434-6 7-7 20-4 29 11 30-71 362-114 459-5 11-26 61-48 112-64 149-254 444-309 481-13 8-23 18-23 23 0 12-122 134-142 142-10 3-18 11-18 16 0 10-153 126-234 178-69 44-318 167-386 191-101 36-190 63-218 67-15 2-58 11-96 20s-75 14-82 11-16-1-20 5c-3 6-19 7-35 4-16-4-33-3-39 0-16 10-361 12-367 2zm163-926c21-84 43-160 50-169 10-13 19-14 69-4 32 7 123 12 201 12 128 0 151-3 209-25 124-46 187-105 245-230 67-141 80-256 41-357-25-65-92-144-145-173s-52-42 6-73c84-45 128-90 167-172 33-70 35-82 35-170 0-79-4-103-23-144-48-100-148-182-310-252-42-18-80-40-85-48-6-9-4-34 6-73 30-107 50-188 58-226 7-37 6-40-24-52-17-7-56-18-86-23-31-6-62-12-70-14-11-2-24 36-55 159-22 89-43 165-47 168-10 10-145-24-158-40-12-14 1-109 21-162 8-22 39-159 39-175 0-3-15-9-32-13-18-3-62-13-96-22-49-13-65-14-71-4-4 6-25 82-47 168-22 90-44 157-52 160-7 3-43-2-80-11-37-10-101-26-142-36s-101-25-132-33c-43-12-59-12-67-4-5 7-19 54-32 105-26 107-28 103 59 122 87 18 133 41 153 75 24 38 24 68-1 158-10 39-29 109-40 154-11 46-30 119-41 163l-40 160c-11 44-29 117-40 162-12 46-29 115-40 153-10 39-19 78-19 87 0 23-47 58-78 58-13 0-43-5-66-11-22-6-55-14-73-19-40-10-38-11-96 118-54 122-76 101 168 162 94 23 178 46 188 51 24 13 22 34-18 194-19 77-35 147-35 155 0 11 27 22 96 38 53 13 98 21 100 19 3-2 23-78 45-168 23-90 44-167 48-171 3-4 42 3 86 16l80 24-3 34c-1 20-18 95-36 169-19 74-31 138-26 143 12 12 184 55 191 48 4-4 24-76 45-161z"/><path d="M1866 2539c-71-16-134-33-140-39-11-11 8-94 82-375 28-108 31-110 160-74 269 74 384 144 413 251 15 57-1 149-34 192-64 82-243 99-481 45zM2070 1855c-90-15-169-35-175-45-5-8 12-95 40-200 38-149 58-215 64-223 13-13 196 33 285 72 115 50 166 115 166 211 0 169-121 228-380 185z"/></svg>