<svg version="1.0" xmlns="http://www.w3.org/2000/svg" width="400px" height="400px" viewBox="0 0 4000 4000" preserveAspectRatio="xMidYMid meet">
  <g id="layer1" fill="#FFFFFF" stroke="none">
    <path d="M1860 3570c-462-40-904-300-1162-685-124-185-205-381-248-605-32-162-32-398 0-560 128-657 613-1142 1270-1270 162-32 398-32 560 0 657 128 1142 613 1270 1270 32 162 32 398 0 560-98 505-403 908-859 1135-244 121-551 179-831 155zm325-495c395-64 737-364 858-750 63-201 63-449 0-650-121-386-463-686-858-750-107-18-244-19-351-4-324 45-640 268-794 561-40 76-100 223-100 245 0 2 116 2 257 1l258-3 24-45c35-64 146-170 216-209 108-59 176-76 305-76 91 0 128 5 180 22 197 65 338 206 403 403 31 92 31 268 0 360-65 197-206 338-403 403-52 17-89 22-180 22-129 0-197-17-305-76-75-42-182-148-221-219l-29-55-244-3c-141-1-249 2-254 7-29 29 110 316 211 436 171 202 427 350 667 384 97 14 263 12 360-4z"/>
  </g>
  <g id="layer2" fill="#000000" stroke="none">
    <path d="M1780 3974c-58-6-299-52-325-63-11-4-58-20-105-35-47-15-109-39-138-52-29-13-57-24-62-24-6 0-10-4-10-8 0-4-17-14-37-21-34-12-161-85-173-100-3-3-21-15-40-25-51-28-221-167-296-242-75-76-232-267-248-304-6-14-13-27-17-30-15-12-88-138-100-172-7-21-17-38-21-38-4 0-8-4-8-10 0-8-11-35-60-145-5-11-16-47-26-80-9-33-20-69-25-80-5-11-21-78-36-150-25-122-27-146-27-395 0-252 1-271 27-395 15-71 32-139 36-150 5-11 16-47 25-80 10-33 21-69 26-80 49-110 60-137 60-145 0-6 4-10 8-10 4 0 14-17 21-37 12-35 85-161 100-173 4-3 11-16 17-30 16-37 173-228 248-304 75-75 245-214 296-242 19-10 37-22 40-25 12-15 139-88 173-100 20-7 37-17 37-21 0-4 4-8 10-8 5 0 33-11 62-24 29-13 91-37 138-52 47-15 94-31 105-35 11-5 79-21 150-36 122-25 146-27 390-27 245-1 268 1 395 27 74 15 144 31 155 36 11 4 58 20 105 35 47 15 109 39 138 52 29 13 57 24 62 24 6 0 10 4 10 8 0 4 17 14 38 21 33 12 160 85 172 100 3 3 21 15 40 25 51 28 221 167 296 242 75 76 232 267 248 304 6 14 13 27 17 30 15 12 88 138 100 173 7 20 17 37 21 37 4 0 8 4 8 10 0 8 11 35 60 145 5 11 16 47 26 80 9 33 20 69 25 80 5 11 21 79 36 150 25 123 27 145 27 395 0 250-2 272-27 395-15 72-31 139-36 150-5 11-16 47-25 80-10 33-21 69-26 80-49 110-60 137-60 145 0 6-4 10-8 10-4 0-14 17-21 38-12 34-85 160-100 172-4 3-11 16-17 30-16 37-173 228-248 304-75 75-245 214-296 242-19 10-37 22-40 25-12 15-139 88-172 100-21 7-38 17-38 21 0 4-4 8-10 8-5 0-33 11-62 24-29 13-91 37-138 52-47 15-94 31-105 35-11 5-78 20-150 35-112 22-160 26-350 29-121 1-240 1-265-1zm505-426c217-40 408-119 595-244 352-236 586-593 670-1024 32-162 32-398 0-560-128-657-613-1142-1270-1270-162-32-398-32-560 0-657 128-1142 613-1270 1270-32 162-32 398 0 560 169 867 979 1427 1835 1268z"/>
    <path d="M1825 3079c-240-34-496-182-667-384-101-120-240-407-211-436 5-5 113-8 254-7l244 3 29 55c39 71 146 177 221 219 108 59 176 76 305 76 91 0 128-5 180-22 197-65 338-206 403-403 31-92 31-268 0-360-65-197-206-338-403-403-52-17-89-22-180-22-129 0-197 17-305 76-70 39-181 145-216 209l-24 45-258 3c-141 1-257 1-257-1 0-22 60-169 100-245 154-293 470-516 794-561 389-54 756 86 1008 384 77 92 164 251 201 370 63 201 63 449 0 650-121 386-463 686-858 750-97 16-263 18-360 4z"/>
  </g>
</svg>
