<!DOCTYPE svg PUBLIC "-//W3C//DTD SVG 20010904//EN" "http://www.w3.org/TR/2001/REC-SVG-20010904/DTD/svg10.dtd">
<svg version="1.0" xmlns="http://www.w3.org/2000/svg" width="500px" height="500px" viewBox="0 0 5000 5000" preserveAspectRatio="xMidYMid meet">
<g id="layer1" fill="#f8f8f8" stroke="none">
 <path d="M2160 4524 c-136 -21 -198 -54 -299 -159 -54 -57 -81 -92 -81 -108 0 -29 33 -60 79 -76 84 -28 134 -96 111 -150 -12 -31 -102 -118 -190 -186 -29 -22 -74 -58 -101 -80 -26 -22 -65 -53 -86 -68 -184 -135 -217 -168 -240 -244 -41 -133 -6 -440 72 -623 63 -151 135 -309 153 -340 11 -19 41 -102 67 -184 52 -165 111 -297 161 -354 66 -77 78 -115 84 -256 5 -110 9 -130 25 -142 10 -8 23 -14 27 -14 18 0 125 81 173 130 72 74 108 90 202 90 92 0 165 -20 213 -58 104 -83 307 -202 345 -202 24 0 61 56 95 141 18 46 46 107 61 135 44 78 93 197 164 399 25 72 84 205 130 296 129 255 150 349 162 709 3 123 1 172 -13 237 -22 106 -39 123 -129 130 -96 8 -95 7 -95 240 0 267 -2 275 -109 386 -96 100 -190 169 -332 245 -111 60 -202 84 -394 107 -149 17 -132 17 -255 -1z"/>
 <path d="M1943 1268 c-49 -54 -93 -190 -93 -286 0 -56 30 -170 54 -207 25 -37 90 -75 131 -75 20 0 53 9 74 20 103 52 155 148 155 288 1 82 0 84 -31 113 -38 33 -79 46 -102 32 -20 -13 -29 -45 -30 -110 -1 -60 -24 -93 -66 -93 -30 0 -45 26 -45 80 0 39 34 120 50 120 15 0 50 42 50 60 0 10 -14 32 -31 49 -38 38 -86 42 -116 9z"/>
 <path d="M2746 1274 c-47 -17 -76 -41 -76 -63 0 -9 23 -37 50 -62 44 -40 50 -51 50 -85 0 -64 -42 -114 -96 -114 -46 0 -58 22 -65 121 -4 49 -12 96 -19 104 -17 21 -53 19 -100 -5 -51 -26 -65 -49 -81 -133 -41 -217 117 -394 326 -363 86 13 168 114 210 261 25 86 17 183 -23 261 -46 92 -88 110 -176 78z"/>
 </g>
<g id="layer2" fill="#000000" stroke="none">
 <path d="M1480 4993 c-14 -2 -29 -9 -34 -14 -6 -5 -20 -9 -33 -9 -13 0 -23 -4 -23 -9 0 -5 -19 -12 -42 -16 -24 -4 -79 -20 -123 -36 -44 -16 -172 -51 -285 -78 -506 -120 -523 -126 -565 -190 -30 -45 -32 -67 -14 -211 12 -99 14 -255 7 -442 -2 -69 0 -89 18 -118 26 -45 77 -73 172 -95 181 -40 235 -76 334 -224 l50 -74 -17 -75 c-25 -106 -11 -178 57 -292 93 -154 119 -210 188 -405 55 -154 110 -295 131 -337 26 -51 131 -208 197 -295 26 -34 70 -94 97 -133 28 -39 67 -93 88 -120 79 -104 79 -106 73 -317 -3 -103 -10 -255 -16 -338 -21 -339 -23 -526 -6 -628 18 -105 32 -150 66 -218 29 -57 124 -175 153 -190 12 -7 38 -24 57 -39 21 -17 55 -31 83 -35 26 -4 47 -11 47 -16 0 -5 15 -9 34 -9 19 0 36 -6 39 -12 6 -19 488 -19 495 0 2 6 17 12 32 12 16 0 31 4 34 9 3 5 25 12 48 15 42 6 67 19 159 80 127 83 231 240 289 435 38 130 49 220 70 571 9 153 19 234 39 298 14 45 118 242 173 327 25 39 54 84 64 102 26 43 129 188 174 243 63 79 146 211 208 335 72 144 174 431 203 570 26 124 31 336 10 442 -13 67 -13 74 4 92 10 12 21 47 26 88 5 37 12 91 15 118 8 54 38 110 88 164 36 38 185 166 235 201 39 27 70 90 71 141 0 88 -117 192 -320 283 -143 64 -256 138 -376 245 -116 104 -169 146 -208 164 -23 10 -52 24 -65 30 -35 17 -433 16 -438 0 -3 -7 -11 -13 -19 -13 -23 0 -64 -42 -96 -97 -44 -79 -40 -78 -533 -78 -377 0 -427 2 -485 18 -83 24 -115 41 -172 91 -68 61 -76 66 -92 66 -8 0 -16 6 -18 13 -4 9 -47 12 -164 14 -87 1 -170 -1 -184 -4z m1085 -543 c202 -40 453 -195 588 -365 l32 -39 5 -226 c7 -297 16 -316 151 -329 l62 -6 14 -55 c16 -62 13 -342 -5 -530 -14 -146 -38 -218 -141 -425 -50 -99 -113 -243 -140 -320 -66 -189 -104 -280 -150 -367 -22 -40 -52 -106 -67 -146 -15 -41 -33 -76 -41 -79 -8 -3 -30 1 -48 10 -39 19 -190 117 -252 163 -72 55 -145 78 -248 78 -115 0 -162 -21 -253 -110 -37 -36 -79 -72 -94 -80 l-28 -15 0 77 c0 131 -31 215 -113 313 -40 47 -90 160 -143 326 -25 77 -65 181 -89 230 -120 250 -141 303 -180 445 -12 47 -26 165 -31 280 -8 156 5 192 102 274 39 34 97 79 128 101 32 22 80 58 106 80 26 22 71 58 100 80 115 88 177 154 190 201 24 86 -28 169 -133 209 -26 10 -47 23 -47 30 0 6 37 48 83 92 85 83 126 106 222 123 74 14 306 2 420 -20z m-546 -3223 c8 -11 6 -18 -10 -33 -112 -101 -94 -294 27 -294 76 0 124 63 124 163 0 40 2 42 31 27 16 -9 19 -22 19 -79 0 -123 -33 -189 -122 -244 -61 -38 -132 -3 -160 78 -18 56 -23 188 -8 244 5 20 11 47 14 61 8 36 43 90 60 90 7 0 19 -6 25 -13z m828 -9 c46 -51 55 -84 51 -192 -4 -118 -28 -184 -95 -254 l-40 -42 -79 0 c-73 0 -84 3 -120 30 -85 62 -126 165 -104 263 19 82 19 83 46 95 40 19 44 15 44 -48 0 -109 46 -173 124 -173 52 0 89 21 117 66 50 81 43 157 -19 214 -38 35 -39 37 -2 52 39 15 55 13 77 -11z"/>
 </g>

</svg>